<?xml version="1.0" encoding="UTF-8"?>
<svg xmlns="http://www.w3.org/2000/svg" xmlns:xlink="http://www.w3.org/1999/xlink" height="83" width="256" viewBox="0 0 256 83">
<style type="text/css">
	.st0{fill:#EDECEA;}
	.st1{fill:#F5C21E;}
	.st2{fill:#7551A0;}
	.st3{fill:#4B98B2;}
	.st4{fill:#929F4B;}
	.st5{fill:#D07B34;}
	.st6{fill:#212121;}
</style>
<path id="grey" class="st0" d="M41.2,2C19.4,2,1.8,19.6,1.8,41.4s17.6,39.4,39.4,39.4C63,80.9,80.6,63.2,80.6,41.4S63,2,41.2,2z
	 M41.3,64.3c-12.6,0-22.9-10.2-22.9-22.9s10.2-22.9,22.9-22.9s22.9,10.2,22.9,22.9l0,0C64.2,54,53.9,64.3,41.3,64.3z"/>
<path id="yellow" class="st1" d="M26.6,37c0,0,2.6-7.3-2.2-13.6s-9.6-12.7-9.6-12.7S5.6,16.1,1.6,29.8s0.7,23.1,0.7,23.1l14.9-5.5
	C21.8,45.6,25.2,41.7,26.6,37z"/>
<path id="purple" class="st2" d="M41.2,26c0,0,7.7,0.3,12.3-6.2s9.2-13,9.2-13s-8-7.1-22.1-6.8S18.8,7.7,18.8,7.7l9.8,12.6
	C31.7,24.1,36.3,26.2,41.2,26z"/>
<path id="blue" class="st3" d="M55.9,36.8c0,0,2.1,7.5,9.7,10s15.2,4.8,15.2,4.8s4.3-9.9-0.3-23.3C75.9,14.9,66.6,9.9,66.6,9.9
	L57.5,23C54.8,27.1,54.2,32.2,55.9,36.8z"/>
<path id="green" class="st4" d="M51,54.2c0,0-6.3,4.2-6.3,12c0.1,7.9,0.2,15.6,0.2,15.6s10.4,1,21.5-7.5s12.8-18.7,12.8-18.7
	l-15-4.4C59.6,50.3,54.7,51.4,51,54.2z"/>
<path id="orange" class="st5" d="M32.4,54.4c0,0-6-4.7-13.3-2.2S4.3,57.3,4.3,57.3S6.6,67.6,18,75.4s21.7,6.5,21.7,6.5l-0.5-15.6
	C38.9,61.5,36.4,57,32.4,54.4z"/>
<path id="assessment_framework" class="st6" d="M104.3,50.5c-0.7,0-1.3-0.1-1.9-0.4c-0.5-0.3-1-0.7-1.3-1.2l0.8-0.7
	c0.3,0.4,0.6,0.7,1.1,1c0.4,0.2,0.9,0.3,1.4,0.3s1.1-0.1,1.5-0.5c0.3-0.3,0.5-0.8,0.5-1.2c0-0.4-0.1-0.7-0.4-1
	c-0.4-0.3-0.8-0.5-1.3-0.6L104,46c-0.7-0.1-1.3-0.4-1.9-0.9c-0.5-0.4-0.7-1-0.7-1.6c0-0.4,0.1-0.7,0.2-1.1c0.1-0.3,0.4-0.6,0.6-0.8
	c0.3-0.2,0.6-0.4,0.9-0.5c0.4-0.1,0.8-0.2,1.2-0.2c0.6,0,1.2,0.1,1.8,0.4c0.5,0.3,0.9,0.6,1.2,1.1l-0.8,0.6
	c-0.2-0.3-0.6-0.6-0.9-0.8c-0.4-0.2-0.9-0.3-1.3-0.3c-0.5,0-1,0.1-1.4,0.4c-0.3,0.3-0.5,0.7-0.5,1.1s0.1,0.7,0.4,1
	c0.4,0.3,0.8,0.4,1.3,0.5l0.7,0.2c0.7,0.1,1.4,0.4,1.9,0.9c0.4,0.4,0.6,1,0.6,1.6c0,0.4-0.1,0.8-0.2,1.1c-0.1,0.3-0.3,0.6-0.6,0.9
	c-0.3,0.2-0.6,0.4-1,0.5C105.1,50.5,104.7,50.5,104.3,50.5z M113.3,49.3L113.3,49.3c-0.1,0.2-0.2,0.3-0.3,0.5
	c-0.1,0.2-0.2,0.3-0.4,0.4c-0.2,0.1-0.3,0.2-0.5,0.3s-0.5,0.1-0.7,0.1c-0.6,0-1.2-0.2-1.7-0.7c-0.4-0.5-0.7-1.2-0.6-1.9v-4.3h1v4.1
	c0,1.2,0.5,1.8,1.5,1.8c0.2,0,0.4,0,0.6-0.1c0.2,0,0.4-0.1,0.5-0.2c0.2-0.1,0.3-0.2,0.4-0.4c0.1-0.2,0.1-0.4,0.1-0.6v-4.6h1v6.7h-1
	L113.3,49.3z M118.5,50.5c-0.5,0-1.1-0.1-1.6-0.4c-0.4-0.2-0.8-0.6-1.1-1l0.7-0.6c0.2,0.3,0.5,0.6,0.9,0.8c0.3,0.2,0.7,0.3,1.1,0.3
	c0.4,0,0.7-0.1,1-0.3c0.2-0.2,0.4-0.5,0.4-0.8c0-0.2-0.1-0.5-0.3-0.7c-0.3-0.2-0.6-0.4-0.9-0.4l-0.5-0.1c-0.3,0-0.6-0.1-0.9-0.2
	c-0.2-0.1-0.5-0.2-0.7-0.4s-0.3-0.3-0.5-0.6c-0.1-0.3-0.2-0.5-0.2-0.8s0.1-0.6,0.2-0.9c0.1-0.2,0.3-0.5,0.5-0.6
	c0.2-0.2,0.5-0.3,0.8-0.4c0.3-0.1,0.6-0.1,0.9-0.1c0.5,0,0.9,0.1,1.4,0.3c0.4,0.2,0.7,0.5,1,0.8L120,45c-0.2-0.2-0.4-0.4-0.7-0.6
	c-0.3-0.2-0.7-0.3-1.1-0.3s-0.7,0.1-1,0.3c-0.2,0.2-0.3,0.5-0.3,0.8s0.1,0.6,0.3,0.7c0.3,0.2,0.6,0.3,1,0.3l0.5,0.1
	c0.6,0,1.1,0.3,1.6,0.6c0.3,0.3,0.5,0.8,0.5,1.2c0,0.6-0.2,1.2-0.7,1.5C119.8,50.4,119.1,50.6,118.5,50.5z M124.2,50.4
	c-0.3,0-0.6-0.1-0.8-0.3c-0.2-0.2-0.3-0.5-0.3-0.8v-4.7H122v-0.9h0.6c0.2,0,0.3,0,0.5-0.1c0.1-0.1,0.1-0.3,0.1-0.5v-1.3h0.9v1.9h1.5
	v0.9h-1.5v4.9h1.4v0.9C125.5,50.4,124.2,50.4,124.2,50.4z M132.1,50.4c-0.3,0-0.6-0.1-0.8-0.3c-0.2-0.2-0.3-0.5-0.3-0.8h-0.1
	c-0.1,0.4-0.4,0.7-0.7,0.9c-0.4,0.2-0.8,0.3-1.2,0.3c-0.6,0-1.2-0.2-1.7-0.5c-0.4-0.4-0.6-0.9-0.6-1.5s0.2-1.1,0.7-1.5
	c0.7-0.4,1.4-0.6,2.2-0.5h1.3v-0.7c0-0.4-0.1-0.8-0.4-1.1c-0.3-0.3-0.8-0.4-1.2-0.4s-0.7,0.1-1,0.3c-0.3,0.2-0.5,0.4-0.7,0.7
	l-0.6-0.6c0.2-0.4,0.5-0.7,0.9-0.9c0.5-0.3,1-0.4,1.5-0.4c0.7,0,1.4,0.2,1.9,0.6c0.5,0.4,0.7,1,0.7,1.7v3.7h0.8v0.9L132.1,50.4
	L132.1,50.4z M129.1,49.6c0.2,0,0.5,0,0.7-0.1c0.2-0.1,0.4-0.1,0.6-0.3c0.1-0.1,0.3-0.2,0.4-0.4c0.1-0.1,0.1-0.3,0.1-0.5v-1.1h-1.4
	c-0.5,0-0.9,0.1-1.3,0.3c-0.3,0.2-0.4,0.4-0.4,0.8v0.3c0,0.3,0.1,0.6,0.4,0.8C128.4,49.6,128.8,49.7,129.1,49.6z M134.6,42.1
	c-0.2,0-0.4,0-0.5-0.2c-0.1-0.1-0.2-0.3-0.2-0.4v-0.2c0-0.2,0-0.3,0.2-0.4c0.1-0.1,0.3-0.2,0.5-0.2s0.4,0,0.5,0.2
	c0.1,0.1,0.2,0.3,0.1,0.4v0.2c0,0.2,0,0.3-0.1,0.4C135,42.1,134.8,42.1,134.6,42.1z M134.2,43.7h1v6.7h-1V43.7z M137.3,50.4v-6.7h1
	v1.1h0.1c0.1-0.4,0.4-0.7,0.7-0.9c0.4-0.2,0.8-0.4,1.2-0.3c0.6,0,1.2,0.2,1.6,0.7c0.4,0.5,0.6,1.2,0.6,1.9v4.3h-1v-4.1
	c0-1.2-0.5-1.8-1.5-1.8c-0.2,0-0.4,0-0.6,0.1c-0.2,0-0.4,0.1-0.5,0.2c-0.2,0.1-0.3,0.2-0.4,0.4s-0.1,0.4-0.1,0.6v4.7h-1.1V50.4z
	 M149.6,50.4c-0.3,0-0.6-0.1-0.8-0.3c-0.2-0.2-0.3-0.5-0.3-0.8h-0.1c-0.1,0.4-0.4,0.7-0.7,0.9c-0.4,0.2-0.8,0.3-1.2,0.3
	c-0.6,0-1.2-0.2-1.7-0.5c-0.4-0.4-0.6-0.9-0.6-1.5s0.2-1.1,0.7-1.5c0.7-0.4,1.4-0.6,2.2-0.5h1.3v-0.7c0-0.4-0.1-0.8-0.4-1.1
	c-0.3-0.3-0.8-0.4-1.2-0.4s-0.7,0.1-1,0.3c-0.3,0.2-0.5,0.4-0.7,0.7l-0.6-0.6c0.2-0.4,0.5-0.7,0.9-0.9c0.5-0.3,1-0.4,1.5-0.4
	c0.7,0,1.4,0.2,1.9,0.6c0.5,0.4,0.7,1,0.7,1.7v3.7h0.8v0.9L149.6,50.4L149.6,50.4z M146.6,49.6c0.2,0,0.5,0,0.7-0.1
	c0.2-0.1,0.4-0.1,0.6-0.3c0.1-0.1,0.3-0.2,0.4-0.4c0.1-0.1,0.1-0.3,0.1-0.5v-1.1H147c-0.5,0-0.9,0.1-1.3,0.3
	c-0.3,0.2-0.4,0.4-0.4,0.8v0.3c0,0.3,0.1,0.6,0.4,0.8C145.9,49.6,146.3,49.7,146.6,49.6L146.6,49.6z M151.7,40.8h1v4h0.1
	c0.1-0.4,0.4-0.7,0.8-0.9c0.4-0.2,0.8-0.3,1.2-0.3s0.8,0.1,1.1,0.2c0.3,0.2,0.6,0.4,0.9,0.7c0.3,0.3,0.4,0.7,0.5,1.1
	c0.1,0.5,0.2,1,0.2,1.5c0,0.5-0.1,1-0.2,1.5c-0.1,0.4-0.3,0.8-0.5,1.1c-0.2,0.3-0.5,0.5-0.9,0.7c-0.4,0.2-0.7,0.3-1.1,0.2
	c-0.9,0-1.6-0.5-2-1.2h-0.1v1.1h-1V40.8z M154.4,49.6c0.5,0,1-0.2,1.4-0.6c0.3-0.4,0.5-0.9,0.5-1.5v-1.1c0-0.5-0.2-1.1-0.5-1.5
	c-0.4-0.4-0.9-0.6-1.4-0.6c-0.2,0-0.5,0-0.7,0.1c-0.2,0.1-0.4,0.1-0.6,0.3c-0.2,0.1-0.3,0.2-0.4,0.4s-0.1,0.3-0.1,0.5v2.5
	c0,0.2,0,0.4,0.1,0.6c0.1,0.2,0.2,0.3,0.4,0.4c0.2,0.1,0.4,0.2,0.6,0.3C154,49.6,154.2,49.6,154.4,49.6z M160.2,50.4
	c-0.3,0-0.6-0.1-0.8-0.3c-0.2-0.2-0.3-0.5-0.3-0.8v-8.5h1v8.7h1v0.9C161.1,50.4,160.2,50.4,160.2,50.4z M165.2,50.5
	c-0.4,0-0.8-0.1-1.2-0.2c-0.4-0.2-0.7-0.4-0.9-0.7c-0.3-0.3-0.5-0.7-0.6-1.1c-0.1-0.5-0.2-1-0.2-1.4c0-0.5,0.1-1,0.2-1.5
	c0.1-0.4,0.3-0.8,0.6-1.1c0.3-0.3,0.6-0.5,0.9-0.7c0.4-0.2,0.8-0.3,1.2-0.2c0.4,0,0.8,0.1,1.2,0.2c0.3,0.2,0.7,0.4,0.9,0.7
	c0.3,0.3,0.5,0.7,0.6,1c0.1,0.4,0.2,0.9,0.2,1.3v0.5h-4.9v0.3c0,0.3,0,0.5,0.1,0.8c0.1,0.2,0.2,0.5,0.4,0.6c0.2,0.2,0.4,0.3,0.6,0.4
	c0.3,0.1,0.6,0.2,0.8,0.2c0.4,0,0.8-0.1,1.1-0.3c0.3-0.2,0.6-0.5,0.7-0.9l0.7,0.5c-0.2,0.5-0.6,0.8-1,1.1
	C166.3,50.4,165.7,50.5,165.2,50.5z M165.2,44.4c-0.3,0-0.5,0-0.8,0.1c-0.2,0.1-0.4,0.2-0.6,0.4c-0.2,0.2-0.3,0.4-0.4,0.6
	c-0.1,0.3-0.1,0.5-0.1,0.8v0.1h3.7v-0.1c0-0.5-0.1-1-0.5-1.4C166.1,44.6,165.6,44.4,165.2,44.4z M172.5,50.4v-0.9h1.3v-7.3h-1.3
	v-0.9h3.6v0.9h-1.3v7.3h1.3v0.9H172.5z M177.9,50.4v-6.7h1v1.1h0.1c0.1-0.4,0.4-0.7,0.7-0.9c0.4-0.2,0.8-0.4,1.2-0.3
	c0.6,0,1.2,0.2,1.6,0.7c0.4,0.5,0.6,1.2,0.6,1.9v4.3h-1v-4.1c0-1.2-0.5-1.8-1.5-1.8c-0.2,0-0.4,0-0.6,0.1c-0.2,0-0.4,0.1-0.5,0.2
	c-0.2,0.1-0.3,0.2-0.4,0.4c-0.1,0.2-0.1,0.4-0.1,0.6v4.7h-1.1V50.4z M186.8,50.4c-0.3,0-0.6-0.1-0.8-0.3c-0.2-0.2-0.3-0.5-0.3-0.8
	v-4.7h-1.1v-0.9h0.6c0.2,0,0.3,0,0.5-0.1c0.1-0.1,0.1-0.3,0.1-0.5v-1.3h0.9v1.9h1.5v0.9h-1.5v4.9h1.4v0.9
	C188.1,50.4,186.8,50.4,186.8,50.4z M192.4,50.5c-0.4,0-0.8-0.1-1.2-0.2c-0.4-0.2-0.7-0.4-0.9-0.7c-0.3-0.3-0.5-0.7-0.6-1.1
	c-0.1-0.5-0.2-1-0.2-1.4c0-0.5,0.1-1,0.2-1.5c0.1-0.4,0.3-0.8,0.6-1.1c0.3-0.3,0.6-0.5,0.9-0.7c0.4-0.2,0.8-0.3,1.2-0.2
	c0.4,0,0.8,0.1,1.2,0.2c0.3,0.2,0.7,0.4,0.9,0.7c0.3,0.3,0.5,0.7,0.6,1c0.1,0.4,0.2,0.9,0.2,1.3v0.5h-4.8v0.3c0,0.3,0,0.5,0.1,0.8
	c0.1,0.2,0.2,0.5,0.4,0.6c0.2,0.2,0.4,0.3,0.6,0.4c0.3,0.1,0.6,0.2,0.8,0.2c0.4,0,0.8-0.1,1.1-0.3c0.3-0.2,0.6-0.5,0.7-0.9l0.7,0.5
	c-0.2,0.5-0.6,0.8-1,1.1C193.5,50.4,192.9,50.5,192.4,50.5z M192.4,44.4c-0.3,0-0.5,0-0.8,0.1c-0.2,0.1-0.4,0.2-0.6,0.4
	c-0.2,0.2-0.3,0.4-0.4,0.6c-0.1,0.3-0.1,0.5-0.1,0.8v0.1h3.7v-0.1c0-0.5-0.1-1-0.5-1.4C193.3,44.6,192.8,44.4,192.4,44.4z
	 M196.9,50.4v-6.7h1v1.1h0.1c0.1-0.4,0.4-0.7,0.7-0.9c0.4-0.2,0.8-0.4,1.2-0.3c0.6,0,1.2,0.2,1.6,0.7c0.4,0.5,0.6,1.2,0.6,1.9v4.3
	h-1v-4.1c0-1.2-0.5-1.8-1.5-1.8c-0.2,0-0.4,0-0.6,0.1c-0.2,0-0.4,0.1-0.5,0.2c-0.2,0.1-0.3,0.2-0.4,0.4s-0.1,0.4-0.1,0.6v4.7h-1.1
	V50.4z M206.3,50.5c-0.5,0-1.1-0.1-1.6-0.4c-0.4-0.2-0.8-0.6-1.1-1l0.7-0.6c0.2,0.3,0.5,0.6,0.9,0.8c0.3,0.2,0.7,0.3,1.1,0.3
	c0.4,0,0.7-0.1,1-0.3c0.2-0.2,0.4-0.5,0.4-0.8c0-0.2-0.1-0.5-0.3-0.7c-0.3-0.2-0.6-0.4-0.9-0.4l-0.5-0.1c-0.3,0-0.6-0.1-0.9-0.2
	c-0.2-0.1-0.5-0.2-0.7-0.4c-0.2-0.2-0.3-0.3-0.5-0.6c-0.1-0.3-0.2-0.5-0.2-0.8s0.1-0.6,0.2-0.9c0.1-0.2,0.3-0.5,0.5-0.6
	c0.2-0.2,0.5-0.3,0.8-0.4c0.3-0.1,0.6-0.1,0.9-0.1c0.5,0,0.9,0.1,1.4,0.3c0.4,0.2,0.7,0.5,1,0.8l-0.7,0.6c-0.2-0.2-0.4-0.4-0.7-0.6
	c-0.3-0.2-0.7-0.3-1.1-0.3c-0.3,0-0.7,0.1-1,0.3c-0.2,0.2-0.3,0.5-0.3,0.8s0.1,0.6,0.3,0.7c0.3,0.2,0.6,0.3,1,0.3l0.5,0.1
	c0.6,0,1.1,0.3,1.6,0.6c0.3,0.3,0.5,0.8,0.5,1.2c0,0.6-0.2,1.2-0.7,1.5C207.6,50.4,206.9,50.6,206.3,50.5L206.3,50.5z M211.1,42.1
	c-0.2,0-0.4,0-0.5-0.2c-0.1-0.1-0.2-0.3-0.1-0.4v-0.2c0-0.2,0-0.3,0.1-0.4s0.3-0.2,0.5-0.2s0.4,0,0.5,0.2c0.1,0.1,0.2,0.3,0.1,0.4
	v0.2c0,0.2,0,0.3-0.1,0.4C211.5,42.1,211.3,42.1,211.1,42.1L211.1,42.1z M210.6,43.7h1v6.7h-1V43.7z M214.2,44.6h-1.1v-0.9h1.1v-1.4
	c0-0.4,0.1-0.8,0.4-1.1c0.3-0.3,0.7-0.5,1.1-0.4h1v0.9h-1.4v2h3.8v6.7h-1v-5.8h-2.7v5.8h-1L214.2,44.6z M218.4,42.1
	c-0.2,0-0.4,0-0.5-0.2c-0.1-0.1-0.2-0.3-0.1-0.4v-0.2c0-0.2,0-0.3,0.1-0.4s0.3-0.2,0.5-0.2c0.2,0,0.4,0,0.5,0.2
	c0.1,0.1,0.2,0.3,0.1,0.4v0.2c0,0.2,0,0.3-0.1,0.4C218.7,42.1,218.6,42.1,218.4,42.1L218.4,42.1z M223.6,50.5
	c-0.4,0-0.9-0.1-1.3-0.2c-0.4-0.2-0.7-0.4-0.9-0.7c-0.3-0.3-0.5-0.7-0.6-1.1c-0.1-0.5-0.2-1-0.2-1.5c0-0.5,0.1-1,0.2-1.5
	c0.1-0.4,0.3-0.8,0.6-1.1c0.3-0.3,0.6-0.5,0.9-0.7c0.4-0.2,0.8-0.3,1.3-0.2c0.6,0,1.1,0.1,1.6,0.4c0.4,0.3,0.7,0.7,0.9,1.1l-0.9,0.4
	c-0.1-0.3-0.3-0.6-0.6-0.8c-0.3-0.2-0.7-0.3-1-0.3c-0.3,0-0.6,0-0.8,0.2c-0.2,0.1-0.4,0.2-0.6,0.4c-0.2,0.2-0.3,0.4-0.4,0.6
	c-0.1,0.3-0.1,0.5-0.1,0.8v1.1c0,0.5,0.1,1,0.5,1.5c0.4,0.4,0.9,0.6,1.4,0.6c0.8,0,1.5-0.4,1.8-1.2l0.8,0.5c-0.2,0.5-0.5,0.9-1,1.2
	C224.7,50.4,224.2,50.6,223.6,50.5z M232.5,50.4c-0.3,0-0.6-0.1-0.8-0.3c-0.2-0.2-0.3-0.5-0.3-0.8h-0.1c-0.1,0.4-0.4,0.7-0.7,0.9
	c-0.4,0.2-0.8,0.3-1.2,0.3c-0.6,0-1.2-0.2-1.7-0.5c-0.4-0.4-0.6-0.9-0.6-1.5s0.2-1.1,0.7-1.5c0.7-0.4,1.4-0.6,2.2-0.5h1.3v-0.7
	c0-0.4-0.1-0.8-0.4-1.1c-0.3-0.3-0.8-0.4-1.2-0.4s-0.7,0.1-1,0.3c-0.3,0.2-0.5,0.4-0.7,0.7l-0.6-0.6c0.2-0.4,0.5-0.7,0.9-0.9
	c0.5-0.3,1-0.4,1.5-0.4c0.7,0,1.4,0.2,1.9,0.6c0.5,0.4,0.7,1,0.7,1.7v3.7h0.8v0.9L232.5,50.4L232.5,50.4z M229.5,49.6
	c0.2,0,0.5,0,0.7-0.1c0.2-0.1,0.4-0.1,0.6-0.3c0.1-0.1,0.3-0.2,0.4-0.4c0.1-0.1,0.1-0.3,0.1-0.5v-1.1h-1.4c-0.5,0-0.9,0.1-1.3,0.3
	c-0.3,0.2-0.4,0.4-0.4,0.8v0.3c0,0.3,0.1,0.6,0.4,0.8C228.9,49.6,229.2,49.7,229.5,49.6z M236,50.4c-0.3,0-0.6-0.1-0.8-0.3
	c-0.2-0.2-0.3-0.5-0.3-0.8v-4.7h-1.1v-0.9h0.6c0.2,0,0.3,0,0.5-0.1c0.1-0.1,0.1-0.3,0.1-0.5v-1.3h0.9v1.9h1.5v0.9h-1.5v4.9h1.4v0.9
	C237.3,50.4,236,50.4,236,50.4z M239.6,42.1c-0.2,0-0.4,0-0.5-0.2c-0.1-0.1-0.2-0.3-0.1-0.4v-0.2c0-0.2,0-0.3,0.1-0.4
	c0.1-0.1,0.3-0.2,0.5-0.2c0.2,0,0.4,0,0.5,0.2c0.1,0.1,0.2,0.3,0.1,0.4v0.2c0,0.2,0,0.3-0.1,0.4C239.9,42.1,239.8,42.1,239.6,42.1
	L239.6,42.1z M239.1,43.7h1v6.7h-1V43.7z M244.8,50.5c-0.4,0-0.8-0.1-1.2-0.2c-0.4-0.2-0.7-0.4-1-0.7c-0.3-0.3-0.5-0.7-0.6-1.1
	c-0.2-0.5-0.2-1-0.2-1.4c0-0.5,0.1-1,0.2-1.4c0.1-0.4,0.3-0.8,0.6-1.1c0.3-0.3,0.6-0.5,1-0.7c0.4-0.2,0.8-0.3,1.2-0.2
	c0.4,0,0.8,0.1,1.2,0.2c0.4,0.2,0.7,0.4,1,0.7c0.3,0.3,0.5,0.7,0.6,1.1c0.2,0.5,0.2,1,0.2,1.4c0,0.5-0.1,1-0.2,1.4
	c-0.1,0.4-0.3,0.8-0.6,1.1c-0.3,0.3-0.6,0.5-1,0.7C245.7,50.5,245.3,50.5,244.8,50.5z M244.8,49.6c0.5,0,1-0.2,1.4-0.5
	c0.4-0.4,0.6-1,0.5-1.6v-1c0-0.6-0.1-1.2-0.5-1.6c-0.4-0.4-0.9-0.5-1.4-0.5s-1,0.2-1.4,0.5c-0.4,0.4-0.6,1-0.5,1.6v1
	c0,0.6,0.1,1.2,0.5,1.6C243.8,49.4,244.3,49.6,244.8,49.6z M249.6,50.4v-6.7h1v1.1h0.1c0.1-0.4,0.4-0.7,0.7-0.9
	c0.4-0.2,0.8-0.4,1.2-0.3c0.6,0,1.2,0.2,1.6,0.7c0.4,0.5,0.6,1.2,0.6,1.9v4.3h-1v-4.1c0-1.2-0.5-1.8-1.5-1.8c-0.2,0-0.4,0-0.6,0.1
	c-0.2,0-0.4,0.1-0.5,0.2c-0.2,0.1-0.3,0.2-0.4,0.4c-0.1,0.2-0.1,0.4-0.1,0.6v4.7h-1.1V50.4z"/>
<path id="sustainable_intensification" class="st6" d="M107.4,68.3l-0.9-2.7h-3.7l-0.9,2.7h-1.1l3.2-9.1h1.4l3.2,9.1H107.4z
	 M104.7,60.2L104.7,60.2l-1.6,4.4h3.1L104.7,60.2z M112,68.4c-0.5,0-1.1-0.1-1.6-0.4c-0.4-0.2-0.8-0.6-1.1-1l0.7-0.6
	c0.2,0.3,0.5,0.6,0.9,0.8c0.3,0.2,0.7,0.3,1.1,0.3c0.4,0,0.7-0.1,1-0.3c0.2-0.2,0.4-0.5,0.4-0.8c0-0.2-0.1-0.5-0.3-0.7
	c-0.3-0.2-0.6-0.4-0.9-0.4l-0.5-0.1c-0.3,0-0.6-0.1-0.9-0.2c-0.2-0.1-0.5-0.2-0.7-0.4c-0.2-0.2-0.3-0.3-0.5-0.6
	c-0.1-0.3-0.2-0.5-0.2-0.8c0-0.3,0.1-0.6,0.2-0.9c0.1-0.2,0.3-0.5,0.5-0.6c0.2-0.2,0.5-0.3,0.8-0.4c0.3-0.1,0.6-0.1,0.9-0.1
	c0.5,0,0.9,0.1,1.4,0.3c0.4,0.2,0.7,0.5,1,0.8l-0.7,0.6c-0.2-0.2-0.4-0.4-0.7-0.6c-0.3-0.2-0.7-0.3-1.1-0.3s-0.7,0.1-1,0.3
	c-0.2,0.2-0.3,0.5-0.3,0.8c0,0.3,0.1,0.6,0.3,0.7c0.3,0.2,0.6,0.3,1,0.3l0.5,0.1c0.6,0,1.1,0.3,1.6,0.6c0.3,0.3,0.5,0.8,0.5,1.2
	c0,0.6-0.2,1.2-0.7,1.5C113.3,68.3,112.6,68.5,112,68.4z M118.1,68.4c-0.5,0-1.1-0.1-1.6-0.4c-0.4-0.2-0.8-0.6-1.1-1l0.7-0.6
	c0.2,0.3,0.5,0.6,0.9,0.8c0.3,0.2,0.7,0.3,1.1,0.3c0.4,0,0.7-0.1,1-0.3c0.2-0.2,0.4-0.5,0.4-0.8c0-0.2-0.1-0.5-0.3-0.7
	c-0.3-0.2-0.6-0.4-0.9-0.4l-0.5-0.1c-0.3,0-0.6-0.1-0.9-0.2c-0.2-0.1-0.5-0.2-0.7-0.4c-0.2-0.2-0.3-0.3-0.5-0.6
	c-0.1-0.3-0.2-0.5-0.2-0.8c0-0.3,0.1-0.6,0.2-0.9c0.1-0.2,0.3-0.5,0.5-0.6c0.2-0.2,0.5-0.3,0.8-0.4c0.3-0.1,0.6-0.1,0.9-0.1
	c0.5,0,0.9,0.1,1.4,0.3c0.4,0.2,0.7,0.5,1,0.8l-0.7,0.6c-0.2-0.2-0.4-0.4-0.7-0.6c-0.3-0.2-0.7-0.3-1.1-0.3s-0.7,0.1-1,0.3
	c-0.2,0.2-0.3,0.5-0.3,0.8c0,0.3,0.1,0.6,0.3,0.7c0.3,0.2,0.6,0.3,1,0.3l0.5,0.1c0.6,0,1.1,0.3,1.6,0.6c0.3,0.3,0.5,0.8,0.5,1.2
	c0,0.6-0.2,1.2-0.7,1.5C119.4,68.3,118.8,68.5,118.1,68.4z M124.9,68.4c-0.4,0-0.9-0.1-1.2-0.2c-0.4-0.2-0.7-0.4-0.9-0.7
	c-0.3-0.3-0.5-0.7-0.6-1.1c-0.1-0.5-0.2-1-0.2-1.4c0-0.5,0.1-1,0.2-1.5c0.1-0.4,0.3-0.8,0.6-1.1c0.3-0.3,0.6-0.5,0.9-0.7
	c0.4-0.2,0.8-0.3,1.2-0.2c0.4,0,0.8,0.1,1.2,0.2c0.3,0.2,0.7,0.4,0.9,0.7c0.3,0.3,0.5,0.7,0.6,1c0.1,0.4,0.2,0.9,0.2,1.3v0.5H123
	v0.3c0,0.3,0,0.5,0.1,0.8c0.1,0.2,0.2,0.5,0.4,0.6c0.2,0.2,0.4,0.3,0.6,0.4c0.3,0.1,0.6,0.2,0.8,0.2c0.4,0,0.8-0.1,1.1-0.3
	c0.3-0.2,0.6-0.5,0.7-0.9l0.7,0.5c-0.2,0.5-0.6,0.8-1,1.1C126.1,68.3,125.5,68.4,124.9,68.4z M124.9,62.3c-0.3,0-0.5,0-0.8,0.1
	c-0.2,0.1-0.4,0.2-0.6,0.4s-0.3,0.4-0.4,0.6c-0.1,0.3-0.1,0.5-0.1,0.8v0.1h3.7v-0.1c0-0.5-0.1-1-0.5-1.4
	C125.9,62.5,125.4,62.3,124.9,62.3z M131.6,68.4c-0.5,0-1.1-0.1-1.6-0.4c-0.4-0.2-0.8-0.6-1.1-1l0.7-0.6c0.2,0.3,0.5,0.6,0.9,0.8
	c0.3,0.2,0.7,0.3,1.1,0.3c0.4,0,0.7-0.1,1-0.3c0.2-0.2,0.4-0.5,0.4-0.8c0-0.2-0.1-0.5-0.3-0.7c-0.3-0.2-0.6-0.4-0.9-0.4l-0.5-0.1
	c-0.3,0-0.6-0.1-0.9-0.2c-0.2-0.1-0.5-0.2-0.7-0.4c-0.2-0.2-0.3-0.3-0.5-0.6c-0.1-0.3-0.2-0.5-0.2-0.8c0-0.3,0.1-0.6,0.2-0.9
	c0.1-0.2,0.3-0.5,0.5-0.6c0.2-0.2,0.5-0.3,0.8-0.4c0.3-0.1,0.6-0.1,0.9-0.1c0.5,0,0.9,0.1,1.4,0.3c0.4,0.2,0.7,0.5,1,0.8l-0.7,0.6
	c-0.2-0.2-0.4-0.4-0.7-0.6c-0.3-0.2-0.7-0.3-1.1-0.3c-0.4,0-0.7,0.1-1,0.3c-0.2,0.2-0.3,0.5-0.3,0.8c0,0.3,0.1,0.6,0.3,0.7
	c0.3,0.2,0.6,0.3,1,0.3l0.5,0.1c0.6,0,1.1,0.3,1.6,0.6c0.3,0.3,0.5,0.8,0.5,1.2c0,0.6-0.2,1.2-0.7,1.5
	C132.9,68.3,132.2,68.5,131.6,68.4z M137.7,68.4c-0.5,0-1.1-0.1-1.6-0.4c-0.4-0.2-0.8-0.6-1.1-1l0.7-0.6c0.2,0.3,0.5,0.6,0.9,0.8
	c0.3,0.2,0.7,0.3,1.1,0.3c0.4,0,0.7-0.1,1-0.3c0.2-0.2,0.4-0.5,0.4-0.8c0-0.2-0.1-0.5-0.3-0.7c-0.3-0.2-0.6-0.4-0.9-0.4l-0.5-0.1
	c-0.3,0-0.6-0.1-0.9-0.2c-0.2-0.1-0.5-0.2-0.7-0.4c-0.2-0.2-0.3-0.3-0.5-0.6c-0.1-0.3-0.2-0.5-0.2-0.8c0-0.3,0.1-0.6,0.2-0.9
	c0.1-0.2,0.3-0.5,0.5-0.6c0.2-0.2,0.5-0.3,0.8-0.4c0.3-0.1,0.6-0.1,0.9-0.1c0.5,0,0.9,0.1,1.4,0.3c0.4,0.2,0.7,0.5,1,0.8l-0.7,0.6
	c-0.2-0.2-0.4-0.4-0.6-0.6c-0.3-0.2-0.7-0.3-1.1-0.3c-0.3,0-0.7,0.1-1,0.3c-0.2,0.2-0.3,0.5-0.3,0.8c0,0.3,0.1,0.6,0.3,0.7
	c0.3,0.2,0.6,0.3,1,0.3l0.5,0.1c0.6,0,1.1,0.3,1.6,0.6c0.3,0.3,0.5,0.8,0.5,1.2c0,0.6-0.2,1.2-0.7,1.5
	C139,68.3,138.4,68.5,137.7,68.4z M142,68.3v-6.7h1v1.1h0.1c0.1-0.2,0.2-0.3,0.3-0.5c0.1-0.2,0.2-0.3,0.4-0.4
	c0.2-0.1,0.3-0.2,0.5-0.3c0.2-0.1,0.4-0.1,0.7-0.1c0.4,0,0.8,0.1,1.2,0.3c0.4,0.2,0.7,0.6,0.8,1l0,0c0.1-0.4,0.4-0.7,0.7-1
	c0.4-0.3,0.9-0.4,1.4-0.4c0.6,0,1.2,0.2,1.6,0.7c0.4,0.5,0.6,1.2,0.6,1.9v4.3h-1v-4.1c0-0.5-0.1-1-0.4-1.4c-0.3-0.3-0.7-0.5-1.1-0.5
	c-0.2,0-0.4,0-0.6,0.1c-0.2,0-0.3,0.1-0.5,0.2c-0.1,0.1-0.3,0.2-0.4,0.4c-0.1,0.2-0.1,0.4-0.1,0.6v4.7h-1v-4.1c0-0.5-0.1-1-0.4-1.4
	c-0.3-0.3-0.7-0.5-1.1-0.5c-0.2,0-0.4,0-0.6,0.1c-0.2,0-0.4,0.1-0.5,0.2c-0.1,0.1-0.3,0.2-0.4,0.4c-0.1,0.2-0.1,0.4-0.1,0.6v4.7
	L142,68.3L142,68.3z M155.8,68.4c-0.4,0-0.8-0.1-1.2-0.2c-0.4-0.2-0.7-0.4-0.9-0.7c-0.3-0.3-0.5-0.7-0.6-1.1c-0.1-0.5-0.2-1-0.2-1.5
	s0.1-1,0.2-1.4c0.1-0.4,0.3-0.8,0.6-1.1c0.3-0.3,0.6-0.5,0.9-0.7c0.4-0.2,0.8-0.3,1.2-0.2c0.4,0,0.8,0.1,1.2,0.2
	c0.3,0.2,0.7,0.4,0.9,0.7c0.3,0.3,0.5,0.7,0.6,1c0.1,0.4,0.2,0.9,0.2,1.3v0.5H154v0.3c0,0.3,0,0.5,0.1,0.8c0.1,0.2,0.2,0.5,0.4,0.6
	c0.2,0.2,0.4,0.3,0.6,0.4c0.3,0.1,0.6,0.2,0.8,0.2c0.4,0,0.8-0.1,1.1-0.3c0.3-0.2,0.6-0.5,0.7-0.9l0.7,0.5c-0.2,0.5-0.6,0.8-1,1.1
	C157,68.3,156.4,68.4,155.8,68.4z M155.8,62.3c-0.3,0-0.5,0-0.8,0.1c-0.2,0.1-0.4,0.2-0.6,0.4c-0.2,0.2-0.3,0.4-0.4,0.6
	c-0.1,0.3-0.1,0.5-0.1,0.8v0.1h3.7v-0.1c0-0.5-0.1-1-0.5-1.4C156.8,62.5,156.3,62.3,155.8,62.3z M160.4,68.3v-6.7h1v1.1h0.1
	c0.1-0.4,0.4-0.7,0.7-0.9c0.4-0.2,0.8-0.4,1.2-0.3c0.6,0,1.2,0.2,1.6,0.7c0.4,0.5,0.6,1.2,0.6,1.9v4.3h-1v-4.1
	c0-1.2-0.5-1.8-1.5-1.8c-0.2,0-0.4,0-0.6,0.1c-0.2,0-0.4,0.1-0.5,0.2c-0.2,0.1-0.3,0.2-0.4,0.4c-0.1,0.2-0.1,0.4-0.1,0.6v4.7h-1.1
	V68.3z M169.3,68.3c-0.3,0-0.6-0.1-0.8-0.3c-0.2-0.2-0.3-0.5-0.3-0.8v-4.7h-1.1v-0.9h0.6c0.2,0,0.3,0,0.5-0.1
	c0.1-0.1,0.1-0.3,0.1-0.5v-1.3h0.9v1.9h1.5v0.9h-1.5v4.9h1.4v0.9C170.6,68.3,169.3,68.3,169.3,68.3z M175.5,68.3v-9.1h5.4v1h-4.3v3
	h3.9v1h-3.9v4.1H175.5z M182.4,68.3v-6.7h1v1.2h0.1c0.1-0.3,0.4-0.6,0.6-0.9c0.4-0.3,0.8-0.4,1.3-0.4h0.4v1h-0.6
	c-0.5,0-0.9,0.1-1.3,0.3c-0.3,0.2-0.5,0.5-0.5,0.8v4.6L182.4,68.3L182.4,68.3z M191.9,68.3c-0.3,0-0.6-0.1-0.8-0.3
	c-0.2-0.2-0.3-0.5-0.3-0.8h-0.1c-0.1,0.4-0.4,0.7-0.7,0.9c-0.4,0.2-0.8,0.3-1.2,0.3c-0.6,0-1.2-0.2-1.7-0.5
	c-0.4-0.4-0.6-0.9-0.6-1.5c0-0.6,0.2-1.1,0.7-1.5c0.7-0.4,1.4-0.6,2.2-0.5h1.3v-0.7c0-0.4-0.1-0.8-0.4-1.1c-0.3-0.3-0.8-0.4-1.2-0.4
	s-0.7,0.1-1,0.3c-0.3,0.2-0.5,0.4-0.7,0.7l-0.6-0.6c0.2-0.4,0.5-0.7,0.9-0.9c0.5-0.3,1-0.4,1.5-0.4c0.7,0,1.4,0.2,1.9,0.6
	c0.5,0.4,0.7,1,0.7,1.7v3.7h0.8v0.9L191.9,68.3L191.9,68.3z M189,67.5c0.2,0,0.5,0,0.7-0.1s0.4-0.1,0.6-0.3c0.1-0.1,0.3-0.2,0.4-0.4
	c0.1-0.1,0.1-0.3,0.1-0.5v-1.1h-1.4c-0.5,0-0.9,0.1-1.3,0.3c-0.3,0.2-0.4,0.4-0.4,0.8v0.3c0,0.3,0.1,0.6,0.4,0.8
	C188.3,67.5,188.6,67.6,189,67.5L189,67.5z M194,68.3v-6.7h1v1.1l0,0c0.1-0.2,0.2-0.3,0.3-0.5c0.1-0.2,0.2-0.3,0.4-0.4
	c0.2-0.1,0.3-0.2,0.5-0.3c0.2-0.1,0.4-0.1,0.7-0.1c0.4,0,0.8,0.1,1.2,0.3s0.7,0.6,0.8,1l0,0c0.1-0.4,0.4-0.7,0.7-1
	c0.4-0.3,0.9-0.4,1.4-0.4c0.6,0,1.2,0.2,1.6,0.7c0.4,0.5,0.6,1.2,0.6,1.9v4.3h-1v-4.1c0-0.5-0.1-1-0.4-1.4c-0.3-0.3-0.7-0.5-1.1-0.5
	c-0.2,0-0.4,0-0.6,0.1c-0.2,0-0.3,0.1-0.5,0.2c-0.1,0.1-0.3,0.2-0.4,0.4c-0.1,0.2-0.1,0.4-0.1,0.6v4.7h-1v-4.1c0-0.5-0.1-1-0.4-1.4
	c-0.3-0.3-0.7-0.5-1.1-0.5c-0.2,0-0.4,0-0.6,0.1c-0.2,0-0.4,0.1-0.5,0.2c-0.1,0.1-0.3,0.2-0.4,0.4c-0.1,0.2-0.1,0.4-0.1,0.6v4.7
	L194,68.3L194,68.3z M207.8,68.4c-0.4,0-0.9-0.1-1.2-0.2c-0.4-0.2-0.7-0.4-0.9-0.7c-0.3-0.3-0.5-0.7-0.6-1.1c-0.1-0.5-0.2-1-0.2-1.4
	c0-0.5,0.1-1,0.2-1.4c0.1-0.4,0.3-0.8,0.6-1.1c0.3-0.3,0.6-0.5,0.9-0.7c0.4-0.2,0.8-0.3,1.2-0.2c0.4,0,0.8,0.1,1.2,0.2
	c0.3,0.2,0.7,0.4,0.9,0.7c0.3,0.3,0.5,0.7,0.6,1c0.1,0.4,0.2,0.9,0.2,1.3v0.5h-4.8v0.3c0,0.3,0,0.5,0.1,0.8c0.1,0.2,0.2,0.5,0.4,0.6
	c0.2,0.2,0.4,0.3,0.6,0.4c0.3,0.1,0.6,0.2,0.8,0.2c0.4,0,0.8-0.1,1.1-0.3c0.3-0.2,0.6-0.5,0.7-0.9l0.7,0.5c-0.2,0.5-0.6,0.9-1,1.1
	C208.9,68.3,208.4,68.4,207.8,68.4z M207.8,62.3c-0.3,0-0.5,0-0.8,0.1c-0.2,0.1-0.4,0.2-0.6,0.4c-0.2,0.2-0.3,0.4-0.4,0.6
	c-0.1,0.3-0.1,0.5-0.1,0.8v0.1h3.7v-0.1c0-0.5-0.1-1-0.5-1.4C208.7,62.5,208.3,62.3,207.8,62.3z M211.6,61.6h1l0.7,2.9l0.7,2.9l0,0
	l0.8-2.9l0.8-2.9h0.9l0.9,2.9l0.8,2.9l0,0l0.7-2.9l0.7-2.9h1l-1.8,6.7h-1.3l-0.9-3.2l-0.6-2l0,0l-0.6,2l-0.9,3.2h-1.3L211.6,61.6z
	 M224.7,68.4c-0.4,0-0.8-0.1-1.2-0.2c-0.4-0.2-0.7-0.4-1-0.7c-0.3-0.3-0.5-0.7-0.6-1.1c-0.2-0.5-0.2-1-0.2-1.4c0-0.5,0.1-1,0.2-1.4
	c0.1-0.4,0.3-0.8,0.6-1.1c0.3-0.3,0.6-0.5,1-0.7s0.8-0.3,1.2-0.2c0.4,0,0.8,0.1,1.2,0.2c0.4,0.2,0.7,0.4,1,0.7
	c0.3,0.3,0.5,0.7,0.6,1.1c0.2,0.5,0.2,1,0.2,1.4c0,0.5-0.1,1-0.2,1.5c-0.1,0.4-0.3,0.8-0.6,1.1c-0.3,0.3-0.6,0.5-1,0.7
	C225.5,68.4,225.1,68.4,224.7,68.4z M224.7,67.5c0.5,0,1-0.2,1.4-0.5c0.4-0.4,0.6-1,0.5-1.6v-1c0-0.6-0.1-1.2-0.5-1.6
	s-0.9-0.5-1.4-0.5s-1,0.2-1.4,0.5c-0.4,0.4-0.6,1-0.5,1.6v1c0,0.6,0.1,1.2,0.5,1.6C223.7,67.3,224.2,67.5,224.7,67.5z M229.4,68.3
	v-6.7h1v1.2h0.1c0.1-0.3,0.4-0.6,0.6-0.9c0.4-0.3,0.8-0.4,1.3-0.4h0.4v1h-0.6c-0.5,0-0.9,0.1-1.3,0.3c-0.3,0.2-0.5,0.5-0.5,0.8v4.6
	L229.4,68.3L229.4,68.3z M234.2,58.7h1v6.1h0.1l1-1.1l1.9-2h1.3l-2.5,2.6l2.7,4.1h-1.3l-2.2-3.4l-1,1v2.4h-1V58.7z"/>
<path id="si_toolkit" class="st6" d="M107.9,32.7c-1.5,0-2.9-0.3-4.3-0.9c-1.1-0.6-2.2-1.4-3-2.4l2.5-2.4c0.6,0.7,1.4,1.4,2.3,1.8
	c0.9,0.4,1.8,0.6,2.8,0.6c0.9,0.1,1.8-0.2,2.6-0.7c0.6-0.5,0.9-1.2,0.9-2c0-0.6-0.2-1.2-0.6-1.6c-0.6-0.5-1.3-0.8-2.1-0.9l-1.8-0.3
	c-3.9-0.6-5.9-2.5-5.9-5.7c0-0.8,0.2-1.6,0.5-2.4c0.3-0.7,0.8-1.3,1.4-1.8c0.7-0.5,1.4-0.9,2.2-1.2c1-0.3,2-0.4,3-0.4
	c1.3,0,2.6,0.2,3.9,0.7c1.1,0.5,2.1,1.2,2.8,2.2l-2.5,2.4c-0.5-0.6-1.1-1.1-1.8-1.5c-0.8-0.4-1.7-0.6-2.6-0.6
	c-0.8-0.1-1.7,0.1-2.4,0.6c-0.5,0.4-0.8,1-0.8,1.7c-0.1,0.6,0.2,1.2,0.6,1.7c0.6,0.4,1.3,0.7,2.1,0.8l1.8,0.3
	c1.6,0.2,3.1,0.8,4.4,1.9c1,1,1.5,2.4,1.4,3.8c0,0.9-0.2,1.7-0.5,2.5c-0.3,0.8-0.8,1.4-1.4,2c-0.7,0.6-1.5,1-2.3,1.3
	C110,32.6,108.9,32.7,107.9,32.7z M118,32.4v-3h2.6V15.9H118v-3h8.9v3h-2.6v13.5h2.6v3H118z M144.8,16.2v16.2h-3.7V16.2h-5.5v-3.3
	h14.7v3.3H144.8z M160.3,32.7c-1.2,0-2.4-0.2-3.5-0.6c-1-0.4-2-1.1-2.7-1.9c-0.8-0.9-1.4-2-1.7-3.2c-0.4-1.4-0.6-2.9-0.6-4.4
	c0-1.5,0.2-2.9,0.6-4.4c0.4-1.2,0.9-2.2,1.7-3.2c0.7-0.9,1.6-1.5,2.7-1.9c1.1-0.4,2.3-0.7,3.5-0.6c1.2,0,2.4,0.2,3.5,0.6
	c1,0.4,2,1.1,2.7,1.9c0.8,0.9,1.4,2,1.7,3.2c0.4,1.4,0.6,2.9,0.6,4.4c0,1.5-0.2,3-0.6,4.4c-0.4,1.2-0.9,2.2-1.7,3.2
	c-0.7,0.8-1.6,1.5-2.7,1.9C162.7,32.5,161.5,32.7,160.3,32.7z M160.3,29.5c1.3,0.1,2.5-0.5,3.3-1.4c0.9-1.1,1.3-2.5,1.2-3.9v-3
	c0.1-1.4-0.4-2.8-1.2-3.9c-0.9-0.9-2.1-1.5-3.3-1.4c-1.3-0.1-2.5,0.5-3.3,1.4c-0.9,1.1-1.3,2.5-1.2,3.9v3c-0.1,1.4,0.4,2.8,1.2,3.9
	C157.8,29.1,159,29.6,160.3,29.5z M180.1,32.7c-1.2,0-2.4-0.2-3.5-0.6c-1-0.4-2-1.1-2.7-1.9c-0.8-0.9-1.4-2-1.7-3.2
	c-0.4-1.4-0.6-2.9-0.6-4.4c0-1.5,0.2-2.9,0.6-4.4c0.4-1.2,0.9-2.2,1.7-3.2c0.7-0.8,1.6-1.5,2.7-1.9s2.3-0.7,3.5-0.6
	c1.2,0,2.4,0.2,3.5,0.6c1,0.4,2,1.1,2.7,1.9c0.8,0.9,1.4,2,1.7,3.2c0.4,1.4,0.6,2.9,0.6,4.4c0,1.5-0.2,3-0.6,4.4
	c-0.4,1.2-0.9,2.2-1.7,3.2c-0.7,0.8-1.7,1.5-2.7,1.9C182.5,32.5,181.3,32.7,180.1,32.7z M180.1,29.5c1.3,0.1,2.5-0.5,3.3-1.4
	c0.9-1.1,1.3-2.5,1.2-3.9v-3c0.1-1.4-0.4-2.8-1.2-3.9c-0.9-0.9-2.1-1.5-3.3-1.4c-1.3-0.1-2.5,0.5-3.3,1.4c-0.9,1.1-1.3,2.5-1.2,3.9
	v3c-0.1,1.4,0.4,2.8,1.2,3.9C177.6,29.1,178.9,29.6,180.1,29.5z M192.4,32.4V12.9h3.7v16.2h7.7v3.3H192.4z M213.2,23.6l-2.6,3.1v5.8
	h-3.7V12.9h3.7v9.6h0.1l2.8-3.7l4.8-6h4.3l-6.8,8.1l7.4,11.3h-4.4L213.2,23.6z M225,32.4v-3h2.6V15.9H225v-3h8.9v3h-2.6v13.5h2.6v3
	H225z M245,16.2v16.2h-3.7V16.2h-5.5v-3.3h14.7v3.3H245z"/>
</svg>
